<mxfile host="65bd71144e">
    <diagram id="x_E3ao2yq1DAkI_dVLW5" name="PÃ¡gina-1">
        <mxGraphModel dx="513" dy="476" grid="1" gridSize="10" guides="1" tooltips="1" connect="1" arrows="1" fold="1" page="1" pageScale="1" pageWidth="827" pageHeight="1169" math="0" shadow="0">
            <root>
                <mxCell id="0"/>
                <mxCell id="1" parent="0"/>
                <mxCell id="58" style="edgeStyle=orthogonalEdgeStyle;html=1;entryX=0;entryY=0.75;entryDx=0;entryDy=0;fontFamily=Helvetica;fontSize=12;fontColor=#000000;exitX=1;exitY=0.5;exitDx=0;exitDy=0;strokeColor=#FFFF00;strokeWidth=1;" parent="1" source="29" target="51" edge="1">
                    <mxGeometry relative="1" as="geometry">
                        <Array as="points">
                            <mxPoint x="260" y="422"/>
                            <mxPoint x="300" y="422"/>
                        </Array>
                    </mxGeometry>
                </mxCell>
                <mxCell id="64" style="edgeStyle=orthogonalEdgeStyle;html=1;entryX=0;entryY=0.5;entryDx=0;entryDy=0;fontFamily=Helvetica;fontSize=12;fontColor=#000000;strokeColor=#FFFF00;" parent="1" source="29" target="59" edge="1">
                    <mxGeometry relative="1" as="geometry">
                        <Array as="points">
                            <mxPoint x="280" y="422"/>
                            <mxPoint x="280" y="456"/>
                        </Array>
                    </mxGeometry>
                </mxCell>
                <mxCell id="29" value="ECONOMY 101" style="swimlane;rounded=1;shadow=0;glass=0;sketch=0;fontFamily=Helvetica;fontSize=12;fontColor=#000000;strokeColor=#36393d;fillColor=#FFFF99;html=1;swimlaneFillColor=#96785A;" parent="1" vertex="1" collapsed="1">
                    <mxGeometry x="60" y="410" width="170" height="23" as="geometry">
                        <mxRectangle x="60" y="410" width="200" height="230" as="alternateBounds"/>
                    </mxGeometry>
                </mxCell>
                <mxCell id="30" value="Specially fit for those looking for long-term investment." style="rounded=1;whiteSpace=wrap;html=1;shadow=0;glass=0;sketch=0;fontFamily=Helvetica;fontSize=12;fontColor=#000000;strokeColor=none;fillColor=#FFCC99;" parent="29" vertex="1">
                    <mxGeometry x="10" y="30" width="180" height="80" as="geometry"/>
                </mxCell>
                <mxCell id="31" value="" style="group;fillColor=none;" parent="29" vertex="1" connectable="0">
                    <mxGeometry x="10" y="120" width="180" height="100" as="geometry"/>
                </mxCell>
                <mxCell id="32" value="" style="rounded=1;whiteSpace=wrap;html=1;shadow=0;glass=0;sketch=0;fontFamily=Helvetica;fontSize=12;fontColor=#000000;strokeColor=none;fillColor=#333333;" parent="31" vertex="1">
                    <mxGeometry width="180" height="100" as="geometry"/>
                </mxCell>
                <mxCell id="33" value="&lt;ul&gt;&lt;li&gt;&lt;span&gt;&lt;span style=&quot;font-size: 10px&quot;&gt;&lt;font color=&quot;#00cccc&quot;&gt;&lt;b&gt;Mercenary&lt;/b&gt;&lt;/font&gt;&lt;/span&gt;&lt;/span&gt;&lt;/li&gt;&lt;li&gt;&lt;span&gt;&lt;font style=&quot;font-size: 10px&quot; color=&quot;#ffff99&quot;&gt;&lt;b&gt;Criptocoin&lt;/b&gt;&lt;/font&gt;&lt;/span&gt;&lt;/li&gt;&lt;/ul&gt;" style="text;strokeColor=none;fillColor=none;html=1;whiteSpace=wrap;verticalAlign=middle;overflow=hidden;rounded=1;shadow=0;glass=0;sketch=0;fontFamily=Helvetica;fontSize=12;fontColor=#000000;" parent="31" vertex="1">
                    <mxGeometry width="180" height="100" as="geometry"/>
                </mxCell>
                <mxCell id="57" style="edgeStyle=orthogonalEdgeStyle;html=1;exitX=1;exitY=0.5;exitDx=0;exitDy=0;fontFamily=Helvetica;fontSize=12;fontColor=#000000;entryX=0;entryY=0.25;entryDx=0;entryDy=0;strokeColor=#00CCCC;" parent="1" source="39" target="51" edge="1">
                    <mxGeometry relative="1" as="geometry">
                        <mxPoint x="300" y="362" as="targetPoint"/>
                        <Array as="points">
                            <mxPoint x="260" y="307"/>
                            <mxPoint x="260" y="411"/>
                            <mxPoint x="300" y="411"/>
                        </Array>
                    </mxGeometry>
                </mxCell>
                <mxCell id="72" style="edgeStyle=orthogonalEdgeStyle;html=1;entryX=0;entryY=0.75;entryDx=0;entryDy=0;fontFamily=Helvetica;fontSize=12;fontColor=#000000;strokeColor=#00CCCC;endArrow=classic;endFill=1;" parent="1" source="39" target="67" edge="1">
                    <mxGeometry relative="1" as="geometry">
                        <Array as="points">
                            <mxPoint x="260" y="306"/>
                            <mxPoint x="260" y="277"/>
                        </Array>
                    </mxGeometry>
                </mxCell>
                <mxCell id="99" style="edgeStyle=orthogonalEdgeStyle;html=1;entryX=0;entryY=0.5;entryDx=0;entryDy=0;fontFamily=Helvetica;fontSize=12;fontColor=#000000;strokeColor=#00CCCC;" parent="1" source="39" target="92" edge="1">
                    <mxGeometry relative="1" as="geometry">
                        <Array as="points">
                            <mxPoint x="280" y="307"/>
                            <mxPoint x="280" y="342"/>
                        </Array>
                    </mxGeometry>
                </mxCell>
                <mxCell id="100" style="edgeStyle=orthogonalEdgeStyle;html=1;entryX=0;entryY=0.5;entryDx=0;entryDy=0;fontFamily=Helvetica;fontSize=12;fontColor=#000000;strokeColor=#00CCCC;" parent="1" source="39" target="34" edge="1">
                    <mxGeometry relative="1" as="geometry">
                        <Array as="points">
                            <mxPoint x="270" y="307"/>
                            <mxPoint x="270" y="377"/>
                            <mxPoint x="300" y="377"/>
                        </Array>
                    </mxGeometry>
                </mxCell>
                <mxCell id="131" style="edgeStyle=orthogonalEdgeStyle;html=1;fontColor=#00CCCC;strokeColor=#FFFF00;exitX=1;exitY=0.5;exitDx=0;exitDy=0;" parent="1" source="29" target="126" edge="1">
                    <mxGeometry relative="1" as="geometry">
                        <mxPoint x="230" y="360" as="sourcePoint"/>
                        <Array as="points">
                            <mxPoint x="260" y="422"/>
                            <mxPoint x="260" y="492"/>
                        </Array>
                    </mxGeometry>
                </mxCell>
                <mxCell id="137" style="edgeStyle=orthogonalEdgeStyle;html=1;entryX=0;entryY=0.75;entryDx=0;entryDy=0;fontColor=#00CCCC;strokeColor=#00CCCC;" parent="1" source="39" target="132" edge="1">
                    <mxGeometry relative="1" as="geometry">
                        <Array as="points">
                            <mxPoint x="280" y="306"/>
                            <mxPoint x="280" y="237"/>
                        </Array>
                    </mxGeometry>
                </mxCell>
                <mxCell id="149" style="edgeStyle=none;html=1;entryX=0;entryY=0.5;entryDx=0;entryDy=0;fontColor=#FF6666;strokeColor=#00CCCC;" edge="1" parent="1" source="39" target="144">
                    <mxGeometry relative="1" as="geometry"/>
                </mxCell>
                <mxCell id="39" value="BASIC FOUNDATION" style="swimlane;rounded=1;shadow=0;glass=0;sketch=0;fontFamily=Helvetica;fontSize=12;fontColor=#000000;strokeColor=#36393d;fillColor=#FFFF99;html=1;swimlaneFillColor=#96785A;" parent="1" vertex="1" collapsed="1">
                    <mxGeometry x="60" y="295" width="170" height="23" as="geometry">
                        <mxRectangle x="60" y="295" width="200" height="230" as="alternateBounds"/>
                    </mxGeometry>
                </mxCell>
                <mxCell id="40" value="Provides the fundamentals tools to strengthen weapons." style="rounded=1;whiteSpace=wrap;html=1;shadow=0;glass=0;sketch=0;fontFamily=Helvetica;fontSize=12;fontColor=#000000;strokeColor=none;fillColor=#FFCC99;" parent="39" vertex="1">
                    <mxGeometry x="10" y="30" width="180" height="80" as="geometry"/>
                </mxCell>
                <mxCell id="41" value="" style="group" parent="39" vertex="1" connectable="0">
                    <mxGeometry x="10" y="120" width="180" height="100" as="geometry"/>
                </mxCell>
                <mxCell id="42" value="" style="rounded=1;whiteSpace=wrap;html=1;shadow=0;glass=0;sketch=0;fontFamily=Helvetica;fontSize=12;fontColor=#000000;strokeColor=none;fillColor=#333333;" parent="41" vertex="1">
                    <mxGeometry width="180" height="100" as="geometry"/>
                </mxCell>
                <mxCell id="43" value="&lt;ul&gt;&lt;li&gt;&lt;span style=&quot;font-size: 10px&quot;&gt;&lt;b&gt;&lt;font color=&quot;#00cccc&quot;&gt;Aggressive&lt;/font&gt;&lt;/b&gt;&lt;/span&gt;&lt;/li&gt;&lt;li&gt;&lt;font style=&quot;font-size: 10px&quot; color=&quot;#00cccc&quot;&gt;&lt;b&gt;Stoic&lt;/b&gt;&lt;/font&gt;&lt;/li&gt;&lt;/ul&gt;" style="text;strokeColor=none;fillColor=none;html=1;whiteSpace=wrap;verticalAlign=middle;overflow=hidden;rounded=1;shadow=0;glass=0;sketch=0;fontFamily=Helvetica;fontSize=12;fontColor=#000000;" parent="41" vertex="1">
                    <mxGeometry width="180" height="100" as="geometry"/>
                </mxCell>
                <mxCell id="66" style="edgeStyle=orthogonalEdgeStyle;html=1;entryX=0;entryY=0.5;entryDx=0;entryDy=0;fontFamily=Helvetica;fontSize=12;fontColor=#000000;strokeColor=#FF0000;" parent="1" source="44" target="4" edge="1">
                    <mxGeometry relative="1" as="geometry"/>
                </mxCell>
                <mxCell id="73" style="edgeStyle=orthogonalEdgeStyle;html=1;entryX=0;entryY=0.25;entryDx=0;entryDy=0;fontFamily=Helvetica;fontSize=12;fontColor=#000000;strokeColor=#FF0000;endArrow=classic;endFill=1;" parent="1" source="44" target="67" edge="1">
                    <mxGeometry relative="1" as="geometry">
                        <Array as="points">
                            <mxPoint x="260" y="152"/>
                            <mxPoint x="260" y="266"/>
                        </Array>
                    </mxGeometry>
                </mxCell>
                <mxCell id="84" style="edgeStyle=orthogonalEdgeStyle;html=1;entryX=0;entryY=0.5;entryDx=0;entryDy=0;fontFamily=Helvetica;fontSize=12;fontColor=#000000;strokeColor=#FF0000;" parent="1" source="44" target="79" edge="1">
                    <mxGeometry relative="1" as="geometry">
                        <Array as="points">
                            <mxPoint x="280" y="152"/>
                            <mxPoint x="280" y="112"/>
                        </Array>
                    </mxGeometry>
                </mxCell>
                <mxCell id="85" style="edgeStyle=orthogonalEdgeStyle;html=1;entryX=0;entryY=0.5;entryDx=0;entryDy=0;fontFamily=Helvetica;fontSize=12;fontColor=#000000;strokeColor=#FF0000;endArrow=classic;endFill=1;" parent="1" source="44" target="74" edge="1">
                    <mxGeometry relative="1" as="geometry">
                        <Array as="points">
                            <mxPoint x="260" y="152"/>
                            <mxPoint x="260" y="72"/>
                        </Array>
                    </mxGeometry>
                </mxCell>
                <mxCell id="98" style="edgeStyle=orthogonalEdgeStyle;html=1;entryX=0;entryY=0.5;entryDx=0;entryDy=0;fontFamily=Helvetica;fontSize=12;fontColor=#000000;strokeColor=#FF0000;" parent="1" source="44" target="87" edge="1">
                    <mxGeometry relative="1" as="geometry">
                        <Array as="points">
                            <mxPoint x="280" y="152"/>
                            <mxPoint x="280" y="192"/>
                        </Array>
                    </mxGeometry>
                </mxCell>
                <mxCell id="138" style="edgeStyle=orthogonalEdgeStyle;html=1;entryX=0;entryY=0.25;entryDx=0;entryDy=0;fontColor=#00CCCC;strokeColor=#FF0000;" parent="1" source="44" target="132" edge="1">
                    <mxGeometry relative="1" as="geometry">
                        <Array as="points">
                            <mxPoint x="270" y="152"/>
                            <mxPoint x="270" y="226"/>
                        </Array>
                    </mxGeometry>
                </mxCell>
                <mxCell id="44" value="ADVANCED WEAPONRY" style="swimlane;rounded=1;shadow=0;glass=0;sketch=0;fontFamily=Helvetica;fontSize=12;fontColor=#000000;strokeColor=#36393d;fillColor=#FFFF99;html=1;swimlaneFillColor=#96785A;" parent="1" vertex="1" collapsed="1">
                    <mxGeometry x="60" y="140" width="170" height="23" as="geometry">
                        <mxRectangle x="60" y="140" width="200" height="230" as="alternateBounds"/>
                    </mxGeometry>
                </mxCell>
                <mxCell id="45" value="&lt;span style=&quot;font-size: 10px&quot;&gt;Contains a selection of basic weapons that focus on variety and flexibility.&lt;/span&gt;" style="rounded=1;whiteSpace=wrap;html=1;shadow=0;glass=0;sketch=0;fontFamily=Helvetica;fontSize=12;fontColor=#000000;strokeColor=none;fillColor=#FFCC99;" parent="44" vertex="1">
                    <mxGeometry x="10" y="30" width="180" height="80" as="geometry"/>
                </mxCell>
                <mxCell id="46" value="" style="group" parent="44" vertex="1" connectable="0">
                    <mxGeometry x="10" y="120" width="180" height="100" as="geometry"/>
                </mxCell>
                <mxCell id="47" value="" style="rounded=1;whiteSpace=wrap;html=1;shadow=0;glass=0;sketch=0;fontFamily=Helvetica;fontSize=12;fontColor=#000000;strokeColor=none;fillColor=#333333;" parent="46" vertex="1">
                    <mxGeometry width="180" height="100" as="geometry"/>
                </mxCell>
                <mxCell id="48" value="&lt;ul&gt;&lt;li&gt;&lt;font style=&quot;font-size: 10px&quot; color=&quot;#ff6666&quot;&gt;&lt;b&gt;Bomber&lt;/b&gt;&lt;/font&gt;&lt;/li&gt;&lt;li&gt;&lt;font style=&quot;font-size: 10px&quot; color=&quot;#ff6666&quot;&gt;&lt;b&gt;Beamer&lt;/b&gt;&lt;/font&gt;&lt;/li&gt;&lt;li&gt;&lt;font style=&quot;font-size: 10px&quot; color=&quot;#ff6666&quot;&gt;&lt;b&gt;Spreader&lt;/b&gt;&lt;/font&gt;&lt;/li&gt;&lt;/ul&gt;" style="text;strokeColor=none;fillColor=none;html=1;whiteSpace=wrap;verticalAlign=middle;overflow=hidden;rounded=1;shadow=0;glass=0;sketch=0;fontFamily=Helvetica;fontSize=12;fontColor=#000000;" parent="46" vertex="1">
                    <mxGeometry width="180" height="100" as="geometry"/>
                </mxCell>
                <mxCell id="59" value="RECYCLING" style="swimlane;rounded=1;shadow=0;glass=0;sketch=0;fontFamily=Helvetica;fontSize=12;fontColor=#000000;strokeColor=#36393d;fillColor=#FFFF99;html=1;swimlaneFillColor=#96785A;" parent="1" vertex="1" collapsed="1">
                    <mxGeometry x="300" y="445" width="170" height="23" as="geometry">
                        <mxRectangle x="300" y="445" width="200" height="230" as="alternateBounds"/>
                    </mxGeometry>
                </mxCell>
                <mxCell id="60" value="Enhances the compesations for selling constructed turrets.&amp;nbsp;" style="rounded=1;whiteSpace=wrap;html=1;shadow=0;glass=0;sketch=0;fontFamily=Helvetica;fontSize=12;fontColor=#000000;strokeColor=none;fillColor=#FFCC99;" parent="59" vertex="1">
                    <mxGeometry x="10" y="30" width="180" height="80" as="geometry"/>
                </mxCell>
                <mxCell id="61" value="" style="group" parent="59" vertex="1" connectable="0">
                    <mxGeometry x="10" y="120" width="180" height="100" as="geometry"/>
                </mxCell>
                <mxCell id="62" value="" style="rounded=1;whiteSpace=wrap;html=1;shadow=0;glass=0;sketch=0;fontFamily=Helvetica;fontSize=12;fontColor=#000000;strokeColor=none;fillColor=#333333;" parent="61" vertex="1">
                    <mxGeometry width="180" height="100" as="geometry"/>
                </mxCell>
                <mxCell id="63" value="&lt;ul&gt;&lt;li&gt;&lt;span&gt;&lt;b&gt;&lt;font style=&quot;font-size: 10px&quot; color=&quot;#00cccc&quot;&gt;Cheap&lt;/font&gt;&lt;/b&gt;&lt;/span&gt;&lt;/li&gt;&lt;li&gt;&lt;b&gt;&lt;font color=&quot;#00cccc&quot; style=&quot;font-size: 10px&quot;&gt;&lt;span&gt;Scrapper&lt;/span&gt;&lt;/font&gt;&lt;/b&gt;&lt;/li&gt;&lt;li&gt;&lt;span&gt;&lt;font style=&quot;font-size: 10px&quot; color=&quot;#ffff99&quot;&gt;&lt;b&gt;Recycle protocol&lt;/b&gt;&lt;/font&gt;&lt;/span&gt;&lt;/li&gt;&lt;/ul&gt;" style="text;strokeColor=none;fillColor=none;html=1;whiteSpace=wrap;verticalAlign=middle;overflow=hidden;rounded=1;shadow=0;glass=0;sketch=0;fontFamily=Helvetica;fontSize=12;fontColor=#000000;" parent="61" vertex="1">
                    <mxGeometry width="180" height="100" as="geometry"/>
                </mxCell>
                <mxCell id="114" style="edgeStyle=orthogonalEdgeStyle;html=1;entryX=0;entryY=0.75;entryDx=0;entryDy=0;fontFamily=Helvetica;fontSize=10;fontColor=#FF6666;endArrow=classic;endFill=1;strokeColor=#FFFF00;elbow=vertical;" parent="1" source="51" target="108" edge="1">
                    <mxGeometry relative="1" as="geometry"/>
                </mxCell>
                <mxCell id="51" value="HASTEN GROWTH" style="swimlane;rounded=1;shadow=0;glass=0;sketch=0;fontFamily=Helvetica;fontSize=12;fontColor=#000000;strokeColor=#36393d;fillColor=#FFFF99;html=1;swimlaneFillColor=#96785A;" parent="1" vertex="1" collapsed="1">
                    <mxGeometry x="380" y="405" width="170" height="23" as="geometry">
                        <mxRectangle x="380" y="405" width="200" height="230" as="alternateBounds"/>
                    </mxGeometry>
                </mxCell>
                <mxCell id="52" value="Unlocks options to accelerate and improve the growth of weapons." style="rounded=1;whiteSpace=wrap;html=1;shadow=0;glass=0;sketch=0;fontFamily=Helvetica;fontSize=12;fontColor=#000000;strokeColor=none;fillColor=#FFCC99;" parent="51" vertex="1">
                    <mxGeometry x="10" y="30" width="180" height="80" as="geometry"/>
                </mxCell>
                <mxCell id="53" value="" style="group" parent="51" vertex="1" connectable="0">
                    <mxGeometry x="10" y="120" width="180" height="100" as="geometry"/>
                </mxCell>
                <mxCell id="54" value="" style="rounded=1;whiteSpace=wrap;html=1;shadow=0;glass=0;sketch=0;fontFamily=Helvetica;fontSize=12;fontColor=#000000;strokeColor=none;fillColor=#333333;" parent="53" vertex="1">
                    <mxGeometry width="180" height="100" as="geometry"/>
                </mxCell>
                <mxCell id="55" value="&lt;ul&gt;&lt;li&gt;&lt;font style=&quot;font-size: 10px&quot; color=&quot;#00cccc&quot;&gt;&lt;b&gt;Veteran&lt;/b&gt;&lt;/font&gt;&lt;/li&gt;&lt;li&gt;&lt;span&gt;&lt;font style=&quot;font-size: 10px&quot; color=&quot;#00cccc&quot;&gt;&lt;b&gt;Prodigy&lt;/b&gt;&lt;/font&gt;&lt;/span&gt;&lt;/li&gt;&lt;li&gt;&lt;b style=&quot;font-size: 10px ; color: rgb(255 , 255 , 153)&quot;&gt;Learning Chip&lt;/b&gt;&lt;br&gt;&lt;/li&gt;&lt;/ul&gt;" style="text;strokeColor=none;fillColor=none;html=1;whiteSpace=wrap;verticalAlign=middle;overflow=hidden;rounded=1;shadow=0;glass=0;sketch=0;fontFamily=Helvetica;fontSize=12;fontColor=#000000;" parent="53" vertex="1">
                    <mxGeometry width="180" height="100" as="geometry"/>
                </mxCell>
                <mxCell id="106" style="edgeStyle=orthogonalEdgeStyle;elbow=vertical;html=1;fontFamily=Helvetica;fontSize=10;fontColor=#FF6666;endArrow=classic;endFill=1;strokeColor=#00CCCC;exitX=1;exitY=0.5;exitDx=0;exitDy=0;entryX=0;entryY=0.75;entryDx=0;entryDy=0;" parent="1" source="34" target="101" edge="1">
                    <mxGeometry relative="1" as="geometry">
                        <mxPoint x="530" y="290" as="targetPoint"/>
                        <Array as="points">
                            <mxPoint x="560" y="377"/>
                            <mxPoint x="560" y="227"/>
                        </Array>
                    </mxGeometry>
                </mxCell>
                <mxCell id="34" value="MEANS OF PROTECTION" style="swimlane;rounded=1;shadow=0;glass=0;sketch=0;fontFamily=Helvetica;fontSize=12;fontColor=#000000;strokeColor=#36393d;fillColor=#FFFF99;html=1;swimlaneFillColor=#96785A;" parent="1" vertex="1" collapsed="1">
                    <mxGeometry x="300" y="365" width="170" height="23" as="geometry">
                        <mxRectangle x="300" y="365" width="200" height="240" as="alternateBounds"/>
                    </mxGeometry>
                </mxCell>
                <mxCell id="35" value="Focus on deployment of force shields." style="rounded=1;whiteSpace=wrap;html=1;shadow=0;glass=0;sketch=0;fontFamily=Helvetica;fontSize=12;fontColor=#000000;strokeColor=none;fillColor=#FFCC99;" parent="34" vertex="1">
                    <mxGeometry x="10" y="30" width="180" height="80" as="geometry"/>
                </mxCell>
                <mxCell id="36" value="" style="group" parent="34" vertex="1" connectable="0">
                    <mxGeometry x="10" y="120" width="180" height="100" as="geometry"/>
                </mxCell>
                <mxCell id="37" value="" style="rounded=1;whiteSpace=wrap;html=1;shadow=0;glass=0;sketch=0;fontFamily=Helvetica;fontSize=12;fontColor=#000000;strokeColor=none;fillColor=#333333;" parent="36" vertex="1">
                    <mxGeometry width="180" height="100" as="geometry"/>
                </mxCell>
                <mxCell id="38" value="&lt;ul&gt;&lt;li&gt;&lt;span&gt;&lt;font style=&quot;font-size: 10px&quot; color=&quot;#ff6666&quot;&gt;&lt;b&gt;Guardian&lt;/b&gt;&lt;/font&gt;&lt;/span&gt;&lt;/li&gt;&lt;li&gt;&lt;span&gt;&lt;font style=&quot;font-size: 10px&quot; color=&quot;#00cccc&quot;&gt;&lt;b&gt;Shielded&lt;/b&gt;&lt;/font&gt;&lt;/span&gt;&lt;/li&gt;&lt;li&gt;&lt;span&gt;&lt;font style=&quot;font-size: 10px&quot; color=&quot;#ffff99&quot;&gt;&lt;b&gt;Shiled generator&lt;/b&gt;&lt;/font&gt;&lt;/span&gt;&lt;/li&gt;&lt;/ul&gt;" style="text;strokeColor=none;fillColor=none;html=1;whiteSpace=wrap;verticalAlign=middle;overflow=hidden;rounded=1;shadow=0;glass=0;sketch=0;fontFamily=Helvetica;fontSize=12;fontColor=#000000;" parent="36" vertex="1">
                    <mxGeometry width="180" height="100" as="geometry"/>
                </mxCell>
                <mxCell id="125" style="edgeStyle=orthogonalEdgeStyle;html=1;entryX=0;entryY=0.25;entryDx=0;entryDy=0;fontColor=#00CCCC;exitX=1;exitY=0.5;exitDx=0;exitDy=0;strokeColor=#FF0000;" parent="1" source="67" target="108" edge="1">
                    <mxGeometry relative="1" as="geometry"/>
                </mxCell>
                <mxCell id="120" style="edgeStyle=orthogonalEdgeStyle;html=1;entryX=0;entryY=0.75;entryDx=0;entryDy=0;fontFamily=Helvetica;fontSize=10;fontColor=#FF6666;endArrow=classic;endFill=1;strokeColor=#FF0000;elbow=vertical;" parent="1" source="87" target="115" edge="1">
                    <mxGeometry relative="1" as="geometry">
                        <Array as="points">
                            <mxPoint x="510" y="192"/>
                            <mxPoint x="510" y="117"/>
                        </Array>
                    </mxGeometry>
                </mxCell>
                <mxCell id="107" style="edgeStyle=orthogonalEdgeStyle;html=1;entryX=0;entryY=0.25;entryDx=0;entryDy=0;fontFamily=Helvetica;fontSize=10;fontColor=#FF6666;endArrow=classic;endFill=1;strokeColor=#FF0000;elbow=vertical;" parent="1" source="4" target="101" edge="1">
                    <mxGeometry relative="1" as="geometry">
                        <Array as="points">
                            <mxPoint x="500" y="152"/>
                            <mxPoint x="500" y="216"/>
                        </Array>
                    </mxGeometry>
                </mxCell>
                <mxCell id="121" style="edgeStyle=orthogonalEdgeStyle;html=1;entryX=0;entryY=0.25;entryDx=0;entryDy=0;fontFamily=Helvetica;fontSize=10;fontColor=#FF6666;endArrow=classic;endFill=1;strokeColor=#FF0000;elbow=vertical;" parent="1" source="74" target="115" edge="1">
                    <mxGeometry relative="1" as="geometry">
                        <Array as="points">
                            <mxPoint x="510" y="72"/>
                            <mxPoint x="510" y="106"/>
                        </Array>
                    </mxGeometry>
                </mxCell>
                <mxCell id="101" value="TOOLS OF RETRIBUTION" style="swimlane;rounded=1;shadow=0;glass=0;sketch=0;fontFamily=Helvetica;fontSize=12;fontColor=#000000;strokeColor=#36393d;fillColor=#FF6666;html=1;swimlaneFillColor=#96785A;" parent="1" vertex="1" collapsed="1">
                    <mxGeometry x="610" y="210" width="170" height="23" as="geometry">
                        <mxRectangle x="530" y="210" width="200" height="240" as="alternateBounds"/>
                    </mxGeometry>
                </mxCell>
                <mxCell id="102" value="Focus on deployment of force shields." style="rounded=1;whiteSpace=wrap;html=1;shadow=0;glass=0;sketch=0;fontFamily=Helvetica;fontSize=12;fontColor=#000000;strokeColor=none;fillColor=#FFCC99;" parent="101" vertex="1">
                    <mxGeometry x="10" y="30" width="180" height="80" as="geometry"/>
                </mxCell>
                <mxCell id="103" value="" style="group" parent="101" vertex="1" connectable="0">
                    <mxGeometry x="10" y="120" width="180" height="100" as="geometry"/>
                </mxCell>
                <mxCell id="104" value="" style="rounded=1;whiteSpace=wrap;html=1;shadow=0;glass=0;sketch=0;fontFamily=Helvetica;fontSize=12;fontColor=#000000;strokeColor=none;fillColor=#333333;" parent="103" vertex="1">
                    <mxGeometry width="180" height="100" as="geometry"/>
                </mxCell>
                <mxCell id="105" value="&lt;ul&gt;&lt;li&gt;&lt;span&gt;&lt;font style=&quot;font-size: 10px&quot; color=&quot;#ff6666&quot;&gt;&lt;b&gt;Guardian&lt;/b&gt;&lt;/font&gt;&lt;/span&gt;&lt;/li&gt;&lt;li&gt;&lt;span&gt;&lt;font style=&quot;font-size: 10px&quot; color=&quot;#00cccc&quot;&gt;&lt;b&gt;Shielded&lt;/b&gt;&lt;/font&gt;&lt;/span&gt;&lt;/li&gt;&lt;li&gt;&lt;span&gt;&lt;font style=&quot;font-size: 10px&quot; color=&quot;#ffff99&quot;&gt;&lt;b&gt;Shiled generator&lt;/b&gt;&lt;/font&gt;&lt;/span&gt;&lt;/li&gt;&lt;/ul&gt;" style="text;strokeColor=none;fillColor=none;html=1;whiteSpace=wrap;verticalAlign=middle;overflow=hidden;rounded=1;shadow=0;glass=0;sketch=0;fontFamily=Helvetica;fontSize=12;fontColor=#000000;" parent="103" vertex="1">
                    <mxGeometry width="180" height="100" as="geometry"/>
                </mxCell>
                <mxCell id="108" value="PATH OF EVOLUTION" style="swimlane;rounded=1;shadow=0;glass=0;sketch=0;fontFamily=Helvetica;fontSize=12;fontColor=#000000;strokeColor=#36393d;fillColor=#FF6666;html=1;swimlaneFillColor=#96785A;" parent="1" vertex="1" collapsed="1">
                    <mxGeometry x="610" y="340" width="170" height="23" as="geometry">
                        <mxRectangle x="530" y="210" width="200" height="240" as="alternateBounds"/>
                    </mxGeometry>
                </mxCell>
                <mxCell id="109" value="Focus on deployment of force shields." style="rounded=1;whiteSpace=wrap;html=1;shadow=0;glass=0;sketch=0;fontFamily=Helvetica;fontSize=12;fontColor=#000000;strokeColor=none;fillColor=#FFCC99;" parent="108" vertex="1">
                    <mxGeometry x="10" y="30" width="180" height="80" as="geometry"/>
                </mxCell>
                <mxCell id="110" value="" style="group" parent="108" vertex="1" connectable="0">
                    <mxGeometry x="10" y="120" width="180" height="100" as="geometry"/>
                </mxCell>
                <mxCell id="111" value="" style="rounded=1;whiteSpace=wrap;html=1;shadow=0;glass=0;sketch=0;fontFamily=Helvetica;fontSize=12;fontColor=#000000;strokeColor=none;fillColor=#333333;" parent="110" vertex="1">
                    <mxGeometry width="180" height="100" as="geometry"/>
                </mxCell>
                <mxCell id="112" value="&lt;ul&gt;&lt;li&gt;&lt;span&gt;&lt;font style=&quot;font-size: 10px&quot; color=&quot;#ff6666&quot;&gt;&lt;b&gt;Guardian&lt;/b&gt;&lt;/font&gt;&lt;/span&gt;&lt;/li&gt;&lt;li&gt;&lt;span&gt;&lt;font style=&quot;font-size: 10px&quot; color=&quot;#00cccc&quot;&gt;&lt;b&gt;Shielded&lt;/b&gt;&lt;/font&gt;&lt;/span&gt;&lt;/li&gt;&lt;li&gt;&lt;span&gt;&lt;font style=&quot;font-size: 10px&quot; color=&quot;#ffff99&quot;&gt;&lt;b&gt;Shiled generator&lt;/b&gt;&lt;/font&gt;&lt;/span&gt;&lt;/li&gt;&lt;/ul&gt;" style="text;strokeColor=none;fillColor=none;html=1;whiteSpace=wrap;verticalAlign=middle;overflow=hidden;rounded=1;shadow=0;glass=0;sketch=0;fontFamily=Helvetica;fontSize=12;fontColor=#000000;" parent="110" vertex="1">
                    <mxGeometry width="180" height="100" as="geometry"/>
                </mxCell>
                <mxCell id="115" value="&lt;font style=&quot;font-size: 8px&quot;&gt;WEAPONS OF MASS DESTRUCTION&lt;/font&gt;" style="swimlane;rounded=1;shadow=0;glass=0;sketch=0;fontFamily=Helvetica;fontSize=12;fontColor=#000000;strokeColor=#36393d;fillColor=#FF6666;html=1;swimlaneFillColor=#96785A;" parent="1" vertex="1" collapsed="1">
                    <mxGeometry x="610" y="100" width="170" height="23" as="geometry">
                        <mxRectangle x="530" y="100" width="200" height="240" as="alternateBounds"/>
                    </mxGeometry>
                </mxCell>
                <mxCell id="116" value="" style="rounded=1;whiteSpace=wrap;html=1;shadow=0;glass=0;sketch=0;fontFamily=Helvetica;fontSize=12;fontColor=#000000;strokeColor=none;fillColor=#FFCC99;" parent="115" vertex="1">
                    <mxGeometry x="10" y="30" width="180" height="80" as="geometry"/>
                </mxCell>
                <mxCell id="117" value="" style="group" parent="115" vertex="1" connectable="0">
                    <mxGeometry x="10" y="120" width="180" height="100" as="geometry"/>
                </mxCell>
                <mxCell id="118" value="" style="rounded=1;whiteSpace=wrap;html=1;shadow=0;glass=0;sketch=0;fontFamily=Helvetica;fontSize=12;fontColor=#000000;strokeColor=none;fillColor=#333333;" parent="117" vertex="1">
                    <mxGeometry width="180" height="100" as="geometry"/>
                </mxCell>
                <mxCell id="119" value="&lt;ul&gt;&lt;li&gt;&lt;span&gt;&lt;font style=&quot;font-size: 10px&quot; color=&quot;#ff6666&quot;&gt;&lt;b&gt;G&lt;/b&gt;&lt;/font&gt;&lt;/span&gt;&lt;/li&gt;&lt;li&gt;&lt;span&gt;&lt;font style=&quot;font-size: 10px&quot; color=&quot;#00cccc&quot;&gt;&lt;b&gt;S&lt;/b&gt;&lt;/font&gt;&lt;/span&gt;&lt;/li&gt;&lt;li&gt;&lt;span&gt;&lt;font style=&quot;font-size: 10px&quot; color=&quot;#ffff99&quot;&gt;&lt;b&gt;Shiled generator&lt;/b&gt;&lt;/font&gt;&lt;/span&gt;&lt;/li&gt;&lt;/ul&gt;" style="text;strokeColor=none;fillColor=none;html=1;whiteSpace=wrap;verticalAlign=middle;overflow=hidden;rounded=1;shadow=0;glass=0;sketch=0;fontFamily=Helvetica;fontSize=12;fontColor=#000000;" parent="117" vertex="1">
                    <mxGeometry width="180" height="100" as="geometry"/>
                </mxCell>
                <mxCell id="126" value="STRENGHT IN NUMBERS" style="swimlane;rounded=1;shadow=0;glass=0;sketch=0;fontFamily=Helvetica;fontSize=12;fontColor=#000000;strokeColor=#36393d;fillColor=#FFFF99;html=1;swimlaneFillColor=#96785A;" parent="1" vertex="1" collapsed="1">
                    <mxGeometry x="300" y="480" width="170" height="23" as="geometry">
                        <mxRectangle x="300" y="480" width="200" height="230" as="alternateBounds"/>
                    </mxGeometry>
                </mxCell>
                <mxCell id="127" value="Focus on the construction of as many turrets as possibles." style="rounded=1;whiteSpace=wrap;html=1;shadow=0;glass=0;sketch=0;fontFamily=Helvetica;fontSize=12;fontColor=#000000;strokeColor=none;fillColor=#FFCC99;" parent="126" vertex="1">
                    <mxGeometry x="10" y="30" width="180" height="80" as="geometry"/>
                </mxCell>
                <mxCell id="128" value="" style="group" parent="126" vertex="1" connectable="0">
                    <mxGeometry x="10" y="120" width="180" height="100" as="geometry"/>
                </mxCell>
                <mxCell id="129" value="" style="rounded=1;whiteSpace=wrap;html=1;shadow=0;glass=0;sketch=0;fontFamily=Helvetica;fontSize=12;fontColor=#000000;strokeColor=none;fillColor=#333333;" parent="128" vertex="1">
                    <mxGeometry width="180" height="100" as="geometry"/>
                </mxCell>
                <mxCell id="130" value="&lt;ul&gt;&lt;li&gt;&lt;span style=&quot;font-size: 10px&quot;&gt;&lt;b&gt;&lt;font color=&quot;#00cccc&quot;&gt;Legionary&lt;/font&gt;&lt;/b&gt;&lt;/span&gt;&lt;/li&gt;&lt;li&gt;&lt;span style=&quot;font-size: 10px&quot;&gt;&lt;b&gt;&lt;font color=&quot;#00cccc&quot;&gt;Symbiotic&lt;/font&gt;&lt;/b&gt;&lt;/span&gt;&lt;/li&gt;&lt;li&gt;&lt;font color=&quot;#ffff99&quot; style=&quot;font-size: 10px&quot;&gt;Algorithm analisys&lt;/font&gt;&lt;/li&gt;&lt;/ul&gt;" style="text;strokeColor=none;fillColor=none;html=1;whiteSpace=wrap;verticalAlign=middle;overflow=hidden;rounded=1;shadow=0;glass=0;sketch=0;fontFamily=Helvetica;fontSize=12;fontColor=#000000;" parent="128" vertex="1">
                    <mxGeometry width="180" height="100" as="geometry"/>
                </mxCell>
                <mxCell id="74" value="CHEMICAL WARFARE" style="swimlane;rounded=1;shadow=0;glass=0;sketch=0;fontFamily=Helvetica;fontSize=12;fontColor=#000000;strokeColor=#36393d;fillColor=#FFFF99;html=1;swimlaneFillColor=#96785A;" parent="1" vertex="1" collapsed="1">
                    <mxGeometry x="300" y="60" width="170" height="23" as="geometry">
                        <mxRectangle x="300" y="60" width="200" height="230" as="alternateBounds"/>
                    </mxGeometry>
                </mxCell>
                <mxCell id="75" value="Unlocks further options of chemical weapons and bases.&amp;nbsp;" style="rounded=1;whiteSpace=wrap;html=1;shadow=0;glass=0;sketch=0;fontFamily=Helvetica;fontSize=12;fontColor=#000000;strokeColor=none;fillColor=#FFCC99;" parent="74" vertex="1">
                    <mxGeometry x="10" y="30" width="180" height="80" as="geometry"/>
                </mxCell>
                <mxCell id="76" value="" style="group" parent="74" vertex="1" connectable="0">
                    <mxGeometry x="10" y="120" width="180" height="100" as="geometry"/>
                </mxCell>
                <mxCell id="77" value="" style="rounded=1;whiteSpace=wrap;html=1;shadow=0;glass=0;sketch=0;fontFamily=Helvetica;fontSize=12;fontColor=#000000;strokeColor=none;fillColor=#333333;" parent="76" vertex="1">
                    <mxGeometry width="180" height="100" as="geometry"/>
                </mxCell>
                <mxCell id="78" value="&lt;ul&gt;&lt;li&gt;&lt;font style=&quot;font-size: 10px&quot; color=&quot;#ff6666&quot;&gt;&lt;b&gt;Stinger&lt;/b&gt;&lt;/font&gt;&lt;/li&gt;&lt;li&gt;&lt;font style=&quot;font-size: 10px&quot; color=&quot;#ff6666&quot;&gt;&lt;b&gt;Will'o'wisps&lt;/b&gt;&lt;/font&gt;&lt;/li&gt;&lt;li&gt;&lt;font style=&quot;font-size: 10px&quot; color=&quot;#00cccc&quot;&gt;Incendiary&lt;/font&gt;&lt;/li&gt;&lt;/ul&gt;" style="text;strokeColor=none;fillColor=none;html=1;whiteSpace=wrap;verticalAlign=middle;overflow=hidden;rounded=1;shadow=0;glass=0;sketch=0;fontFamily=Helvetica;fontSize=12;fontColor=#000000;" parent="76" vertex="1">
                    <mxGeometry width="180" height="100" as="geometry"/>
                </mxCell>
                <mxCell id="132" value="WHITHER AND STRAIN" style="swimlane;rounded=1;shadow=0;glass=0;sketch=0;fontFamily=Helvetica;fontSize=12;fontColor=#000000;strokeColor=#36393d;fillColor=#FFFF99;html=1;swimlaneFillColor=#96785A;" parent="1" vertex="1" collapsed="1">
                    <mxGeometry x="380" y="220" width="170" height="23" as="geometry">
                        <mxRectangle x="380" y="220" width="200" height="230" as="alternateBounds"/>
                    </mxGeometry>
                </mxCell>
                <mxCell id="133" value="A pack that specializes in controlling the strenght of your enemies." style="rounded=1;whiteSpace=wrap;html=1;shadow=0;glass=0;sketch=0;fontFamily=Helvetica;fontSize=12;fontColor=#000000;strokeColor=none;fillColor=#FFCC99;" parent="132" vertex="1">
                    <mxGeometry x="10" y="30" width="180" height="80" as="geometry"/>
                </mxCell>
                <mxCell id="134" value="" style="group" parent="132" vertex="1" connectable="0">
                    <mxGeometry x="10" y="120" width="180" height="100" as="geometry"/>
                </mxCell>
                <mxCell id="135" value="" style="rounded=1;whiteSpace=wrap;html=1;shadow=0;glass=0;sketch=0;fontFamily=Helvetica;fontSize=12;fontColor=#000000;strokeColor=none;fillColor=#333333;" parent="134" vertex="1">
                    <mxGeometry width="180" height="100" as="geometry"/>
                </mxCell>
                <mxCell id="136" value="&lt;ul&gt;&lt;li&gt;&lt;b style=&quot;font-size: 10px&quot;&gt;&lt;font color=&quot;#ff6666&quot;&gt;Shark cannon&lt;/font&gt;&lt;/b&gt;&lt;br&gt;&lt;/li&gt;&lt;li&gt;&lt;b style=&quot;font-size: 10px&quot;&gt;&lt;font color=&quot;#ff6666&quot;&gt;Disruptor pulse&lt;/font&gt;&lt;/b&gt;&lt;/li&gt;&lt;li&gt;&lt;b&gt;&lt;font style=&quot;font-size: 10px&quot; color=&quot;#00cccc&quot;&gt;Enfeebling&lt;/font&gt;&lt;/b&gt;&lt;br&gt;&lt;/li&gt;&lt;/ul&gt;" style="text;strokeColor=none;fillColor=none;html=1;whiteSpace=wrap;verticalAlign=middle;overflow=hidden;rounded=1;shadow=0;glass=0;sketch=0;fontFamily=Helvetica;fontSize=12;fontColor=#000000;" parent="134" vertex="1">
                    <mxGeometry width="180" height="100" as="geometry"/>
                </mxCell>
                <mxCell id="87" value="VOLATILE CONTACT" style="swimlane;rounded=1;shadow=0;glass=0;sketch=0;fontFamily=Helvetica;fontSize=12;fontColor=#000000;strokeColor=#36393d;fillColor=#FFFF99;html=1;swimlaneFillColor=#96785A;" parent="1" vertex="1" collapsed="1">
                    <mxGeometry x="300" y="180" width="170" height="23" as="geometry">
                        <mxRectangle x="300" y="180" width="200" height="230" as="alternateBounds"/>
                    </mxGeometry>
                </mxCell>
                <mxCell id="88" value="Includes weapons that focus on large groups of enemies." style="rounded=1;whiteSpace=wrap;html=1;shadow=0;glass=0;sketch=0;fontFamily=Helvetica;fontSize=12;fontColor=#000000;strokeColor=none;fillColor=#FFCC99;" parent="87" vertex="1">
                    <mxGeometry x="10" y="30" width="180" height="80" as="geometry"/>
                </mxCell>
                <mxCell id="89" value="" style="group" parent="87" vertex="1" connectable="0">
                    <mxGeometry x="10" y="120" width="180" height="100" as="geometry"/>
                </mxCell>
                <mxCell id="90" value="" style="rounded=1;whiteSpace=wrap;html=1;shadow=0;glass=0;sketch=0;fontFamily=Helvetica;fontSize=12;fontColor=#000000;strokeColor=none;fillColor=#333333;" parent="89" vertex="1">
                    <mxGeometry width="180" height="100" as="geometry"/>
                </mxCell>
                <mxCell id="91" value="&lt;ul&gt;&lt;li&gt;&lt;span&gt;&lt;font style=&quot;font-size: 10px&quot; color=&quot;#ff6666&quot;&gt;Blunderbuss&lt;/font&gt;&lt;/span&gt;&lt;/li&gt;&lt;li&gt;&lt;font color=&quot;#ff6666&quot;&gt;&lt;span style=&quot;font-size: 10px&quot;&gt;Shell shooter&lt;/span&gt;&lt;/font&gt;&lt;/li&gt;&lt;li&gt;&lt;span style=&quot;font-size: 10px&quot;&gt;&lt;font color=&quot;#00cccc&quot;&gt;Explosive&lt;/font&gt;&lt;/span&gt;&lt;/li&gt;&lt;/ul&gt;" style="text;strokeColor=none;fillColor=none;html=1;whiteSpace=wrap;verticalAlign=middle;overflow=hidden;rounded=1;shadow=0;glass=0;sketch=0;fontFamily=Helvetica;fontSize=12;fontColor=#000000;" parent="89" vertex="1">
                    <mxGeometry width="180" height="100" as="geometry"/>
                </mxCell>
                <mxCell id="144" value="VAMPIRIC SURVIVAL" style="swimlane;rounded=1;shadow=0;glass=0;sketch=0;fontFamily=Helvetica;fontSize=12;fontColor=#000000;strokeColor=#36393d;fillColor=#FFFF99;html=1;swimlaneFillColor=#96785A;" vertex="1" collapsed="1" parent="1">
                    <mxGeometry x="300" y="295" width="170" height="23" as="geometry">
                        <mxRectangle x="300" y="295" width="200" height="230" as="alternateBounds"/>
                    </mxGeometry>
                </mxCell>
                <mxCell id="145" value="Allows the construction of turrets devoted to support of other weapons." style="rounded=1;whiteSpace=wrap;html=1;shadow=0;glass=0;sketch=0;fontFamily=Helvetica;fontSize=12;fontColor=#000000;strokeColor=none;fillColor=#FFCC99;" vertex="1" parent="144">
                    <mxGeometry x="10" y="30" width="180" height="80" as="geometry"/>
                </mxCell>
                <mxCell id="146" value="" style="group" vertex="1" connectable="0" parent="144">
                    <mxGeometry x="10" y="120" width="180" height="100" as="geometry"/>
                </mxCell>
                <mxCell id="147" value="" style="rounded=1;whiteSpace=wrap;html=1;shadow=0;glass=0;sketch=0;fontFamily=Helvetica;fontSize=12;fontColor=#000000;strokeColor=none;fillColor=#333333;" vertex="1" parent="146">
                    <mxGeometry width="180" height="100" as="geometry"/>
                </mxCell>
                <mxCell id="148" value="&lt;ul&gt;&lt;li&gt;&lt;span&gt;&lt;font color=&quot;#ff6666&quot; style=&quot;font-size: 10px&quot;&gt;&lt;b&gt;Arc leech&lt;/b&gt;&lt;/font&gt;&lt;/span&gt;&lt;/li&gt;&lt;li&gt;&lt;span&gt;&lt;font style=&quot;font-size: 10px&quot; color=&quot;#00cccc&quot;&gt;&lt;b&gt;Mending&lt;/b&gt;&lt;/font&gt;&lt;/span&gt;&lt;/li&gt;&lt;li&gt;&lt;font color=&quot;#ffff99&quot; style=&quot;font-size: 10px&quot;&gt;Repairing module&lt;/font&gt;&lt;/li&gt;&lt;/ul&gt;" style="text;strokeColor=none;fillColor=none;html=1;whiteSpace=wrap;verticalAlign=middle;overflow=hidden;rounded=1;shadow=0;glass=0;sketch=0;fontFamily=Helvetica;fontSize=12;fontColor=#000000;" vertex="1" parent="146">
                    <mxGeometry width="180" height="100" as="geometry"/>
                </mxCell>
                <mxCell id="4" value="STEADY RAMPAGE" style="swimlane;rounded=1;shadow=0;glass=0;sketch=0;fontFamily=Helvetica;fontSize=12;fontColor=#000000;strokeColor=#36393d;fillColor=#FFFF99;html=1;swimlaneFillColor=#96785A;" parent="1" vertex="1" collapsed="1">
                    <mxGeometry x="300" y="140" width="170" height="23" as="geometry">
                        <mxRectangle x="300" y="140" width="200" height="230" as="alternateBounds"/>
                    </mxGeometry>
                </mxCell>
                <mxCell id="5" value="Offers options that focus on speed and rate of fire." style="rounded=1;whiteSpace=wrap;html=1;shadow=0;glass=0;sketch=0;fontFamily=Helvetica;fontSize=12;fontColor=#000000;strokeColor=none;fillColor=#FFCC99;" parent="4" vertex="1">
                    <mxGeometry x="10" y="30" width="180" height="80" as="geometry"/>
                </mxCell>
                <mxCell id="10" value="" style="group" parent="4" vertex="1" connectable="0">
                    <mxGeometry x="10" y="120" width="180" height="100" as="geometry"/>
                </mxCell>
                <mxCell id="6" value="" style="rounded=1;whiteSpace=wrap;html=1;shadow=0;glass=0;sketch=0;fontFamily=Helvetica;fontSize=12;fontColor=#000000;strokeColor=none;fillColor=#333333;" parent="10" vertex="1">
                    <mxGeometry width="180" height="100" as="geometry"/>
                </mxCell>
                <mxCell id="8" value="&lt;ul&gt;&lt;li&gt;&lt;span&gt;&lt;font style=&quot;font-size: 10px&quot; color=&quot;#ff6666&quot;&gt;&lt;b&gt;Lancer&lt;/b&gt;&lt;/font&gt;&lt;/span&gt;&lt;/li&gt;&lt;li&gt;&lt;span&gt;&lt;font color=&quot;#ff6666&quot; style=&quot;font-size: 10px&quot;&gt;&lt;b&gt;Sentry gun&lt;/b&gt;&lt;/font&gt;&lt;/span&gt;&lt;/li&gt;&lt;li&gt;&lt;font style=&quot;font-size: 10px&quot; color=&quot;#00cccc&quot;&gt;&lt;b&gt;Relentless&lt;/b&gt;&lt;/font&gt;&lt;/li&gt;&lt;/ul&gt;" style="text;strokeColor=none;fillColor=none;html=1;whiteSpace=wrap;verticalAlign=middle;overflow=hidden;rounded=1;shadow=0;glass=0;sketch=0;fontFamily=Helvetica;fontSize=12;fontColor=#000000;" parent="10" vertex="1">
                    <mxGeometry width="180" height="100" as="geometry"/>
                </mxCell>
                <mxCell id="79" value="D.E.W&amp;nbsp;" style="swimlane;rounded=1;shadow=0;glass=0;sketch=0;fontFamily=Helvetica;fontSize=12;fontColor=#000000;strokeColor=#36393d;fillColor=#FFFF99;html=1;swimlaneFillColor=#96785A;" parent="1" vertex="1" collapsed="1">
                    <mxGeometry x="300" y="100" width="170" height="23" as="geometry">
                        <mxRectangle x="300" y="100" width="200" height="250" as="alternateBounds"/>
                    </mxGeometry>
                </mxCell>
                <mxCell id="80" value="Unlocks further options for direct energy weapons." style="rounded=1;whiteSpace=wrap;html=1;shadow=0;glass=0;sketch=0;fontFamily=Helvetica;fontSize=12;fontColor=#000000;strokeColor=none;fillColor=#FFCC99;" parent="79" vertex="1">
                    <mxGeometry x="10" y="30" width="180" height="80" as="geometry"/>
                </mxCell>
                <mxCell id="81" value="" style="group" parent="79" vertex="1" connectable="0">
                    <mxGeometry x="10" y="120" width="180" height="100" as="geometry"/>
                </mxCell>
                <mxCell id="82" value="" style="rounded=1;whiteSpace=wrap;html=1;shadow=0;glass=0;sketch=0;fontFamily=Helvetica;fontSize=12;fontColor=#000000;strokeColor=none;fillColor=#333333;" parent="81" vertex="1">
                    <mxGeometry width="180" height="100" as="geometry"/>
                </mxCell>
                <mxCell id="83" value="&lt;ul&gt;&lt;li&gt;&lt;span&gt;&lt;font color=&quot;#ff6666&quot;&gt;Warcaster&lt;/font&gt;&lt;/span&gt;&lt;/li&gt;&lt;li&gt;&lt;font color=&quot;#ff6666&quot;&gt;Plasma storm&lt;/font&gt;&lt;/li&gt;&lt;li&gt;&lt;font color=&quot;#00cccc&quot;&gt;Energized&lt;/font&gt;&lt;/li&gt;&lt;/ul&gt;" style="text;strokeColor=none;fillColor=none;html=1;whiteSpace=wrap;verticalAlign=middle;overflow=hidden;rounded=1;shadow=0;glass=0;sketch=0;fontFamily=Helvetica;fontSize=12;fontColor=#000000;" parent="81" vertex="1">
                    <mxGeometry width="180" height="100" as="geometry"/>
                </mxCell>
                <mxCell id="92" value="A.I.D PROTOCOL" style="swimlane;rounded=1;shadow=0;glass=0;sketch=0;fontFamily=Helvetica;fontSize=12;fontColor=#000000;strokeColor=#36393d;fillColor=#FFFF99;html=1;swimlaneFillColor=#96785A;" parent="1" vertex="1" collapsed="1">
                    <mxGeometry x="300" y="330" width="170" height="23" as="geometry">
                        <mxRectangle x="300" y="330" width="200" height="230" as="alternateBounds"/>
                    </mxGeometry>
                </mxCell>
                <mxCell id="93" value="Allows the construction of turrets devoted to support of other weapons." style="rounded=1;whiteSpace=wrap;html=1;shadow=0;glass=0;sketch=0;fontFamily=Helvetica;fontSize=12;fontColor=#000000;strokeColor=none;fillColor=#FFCC99;" parent="92" vertex="1">
                    <mxGeometry x="10" y="30" width="180" height="80" as="geometry"/>
                </mxCell>
                <mxCell id="94" value="" style="group" parent="92" vertex="1" connectable="0">
                    <mxGeometry x="10" y="120" width="180" height="100" as="geometry"/>
                </mxCell>
                <mxCell id="95" value="" style="rounded=1;whiteSpace=wrap;html=1;shadow=0;glass=0;sketch=0;fontFamily=Helvetica;fontSize=12;fontColor=#000000;strokeColor=none;fillColor=#333333;" parent="94" vertex="1">
                    <mxGeometry width="180" height="100" as="geometry"/>
                </mxCell>
                <mxCell id="96" value="&lt;ul&gt;&lt;li&gt;&lt;span&gt;&lt;font color=&quot;#ff6666&quot; style=&quot;font-size: 10px&quot;&gt;&lt;b&gt;Enhancer&lt;/b&gt;&lt;/font&gt;&lt;/span&gt;&lt;/li&gt;&lt;li&gt;&lt;span&gt;&lt;font style=&quot;font-size: 10px&quot; color=&quot;#00cccc&quot;&gt;&lt;b&gt;Commander&lt;/b&gt;&lt;/font&gt;&lt;/span&gt;&lt;/li&gt;&lt;li&gt;&lt;font color=&quot;#ffff99&quot; style=&quot;font-size: 10px&quot;&gt;Energy core&lt;/font&gt;&lt;/li&gt;&lt;/ul&gt;" style="text;strokeColor=none;fillColor=none;html=1;whiteSpace=wrap;verticalAlign=middle;overflow=hidden;rounded=1;shadow=0;glass=0;sketch=0;fontFamily=Helvetica;fontSize=12;fontColor=#000000;" parent="94" vertex="1">
                    <mxGeometry width="180" height="100" as="geometry"/>
                </mxCell>
                <mxCell id="67" value="CELERITY" style="swimlane;rounded=1;shadow=0;glass=0;sketch=0;fontFamily=Helvetica;fontSize=12;fontColor=#000000;strokeColor=#36393d;fillColor=#FFFF99;html=1;swimlaneFillColor=#96785A;" parent="1" vertex="1" collapsed="1">
                    <mxGeometry x="380" y="260" width="170" height="23" as="geometry">
                        <mxRectangle x="380" y="260" width="200" height="230" as="alternateBounds"/>
                    </mxGeometry>
                </mxCell>
                <mxCell id="139" value="HASTEN GROWTH" style="swimlane;rounded=1;shadow=0;glass=0;sketch=0;fontFamily=Helvetica;fontSize=12;fontColor=#000000;strokeColor=#36393d;fillColor=#FFFF99;html=1;swimlaneFillColor=#96785A;" vertex="1" collapsed="1" parent="67">
                    <mxGeometry y="150" width="170" height="23" as="geometry">
                        <mxRectangle x="320" y="330" width="200" height="230" as="alternateBounds"/>
                    </mxGeometry>
                </mxCell>
                <mxCell id="140" value="Unlocks options to accelerate and improve the growth of weapons." style="rounded=1;whiteSpace=wrap;html=1;shadow=0;glass=0;sketch=0;fontFamily=Helvetica;fontSize=12;fontColor=#000000;strokeColor=none;fillColor=#FFCC99;" vertex="1" parent="139">
                    <mxGeometry x="10" y="30" width="180" height="80" as="geometry"/>
                </mxCell>
                <mxCell id="141" value="" style="group" vertex="1" connectable="0" parent="139">
                    <mxGeometry x="10" y="120" width="180" height="100" as="geometry"/>
                </mxCell>
                <mxCell id="142" value="" style="rounded=1;whiteSpace=wrap;html=1;shadow=0;glass=0;sketch=0;fontFamily=Helvetica;fontSize=12;fontColor=#000000;strokeColor=none;fillColor=#333333;" vertex="1" parent="141">
                    <mxGeometry width="180" height="100" as="geometry"/>
                </mxCell>
                <mxCell id="143" value="&lt;ul&gt;&lt;li&gt;&lt;font style=&quot;font-size: 10px&quot; color=&quot;#00cccc&quot;&gt;&lt;b&gt;Veteran&lt;/b&gt;&lt;/font&gt;&lt;/li&gt;&lt;li&gt;&lt;span&gt;&lt;font style=&quot;font-size: 10px&quot; color=&quot;#00cccc&quot;&gt;&lt;b&gt;Prodigy&lt;/b&gt;&lt;/font&gt;&lt;/span&gt;&lt;/li&gt;&lt;li&gt;&lt;b style=&quot;font-size: 10px ; color: rgb(255 , 255 , 153)&quot;&gt;Learning Chip&lt;/b&gt;&lt;br&gt;&lt;/li&gt;&lt;/ul&gt;" style="text;strokeColor=none;fillColor=none;html=1;whiteSpace=wrap;verticalAlign=middle;overflow=hidden;rounded=1;shadow=0;glass=0;sketch=0;fontFamily=Helvetica;fontSize=12;fontColor=#000000;" vertex="1" parent="141">
                    <mxGeometry width="180" height="100" as="geometry"/>
                </mxCell>
                <mxCell id="68" value="Improves the overrall speed of the turrets and the ship." style="rounded=1;whiteSpace=wrap;html=1;shadow=0;glass=0;sketch=0;fontFamily=Helvetica;fontSize=12;fontColor=#000000;strokeColor=none;fillColor=#FFCC99;" parent="67" vertex="1">
                    <mxGeometry x="10" y="30" width="180" height="80" as="geometry"/>
                </mxCell>
                <mxCell id="69" value="" style="group" parent="67" vertex="1" connectable="0">
                    <mxGeometry x="10" y="120" width="180" height="100" as="geometry"/>
                </mxCell>
                <mxCell id="70" value="" style="rounded=1;whiteSpace=wrap;html=1;shadow=0;glass=0;sketch=0;fontFamily=Helvetica;fontSize=12;fontColor=#000000;strokeColor=none;fillColor=#333333;" parent="69" vertex="1">
                    <mxGeometry width="180" height="100" as="geometry"/>
                </mxCell>
                <mxCell id="71" value="&lt;ul&gt;&lt;li&gt;&lt;span&gt;&lt;font style=&quot;font-size: 10px&quot; color=&quot;#ff6666&quot;&gt;&lt;b&gt;Chain reactor&lt;/b&gt;&lt;/font&gt;&lt;/span&gt;&lt;/li&gt;&lt;li&gt;&lt;span&gt;&lt;font style=&quot;font-size: 10px&quot; color=&quot;#00cccc&quot;&gt;&lt;b&gt;Swift&lt;/b&gt;&lt;/font&gt;&lt;/span&gt;&lt;/li&gt;&lt;li&gt;&lt;b&gt;&lt;font color=&quot;#ffff99&quot; style=&quot;font-size: 10px&quot;&gt;Arcjet&lt;/font&gt;&lt;/b&gt;&lt;br&gt;&lt;/li&gt;&lt;/ul&gt;" style="text;strokeColor=none;fillColor=none;html=1;whiteSpace=wrap;verticalAlign=middle;overflow=hidden;rounded=1;shadow=0;glass=0;sketch=0;fontFamily=Helvetica;fontSize=12;fontColor=#000000;" parent="69" vertex="1">
                    <mxGeometry width="180" height="100" as="geometry"/>
                </mxCell>
            </root>
        </mxGraphModel>
    </diagram>
</mxfile>